<svg width="1164" height="186" viewBox="0 0 1164 186" fill="none" xmlns="http://www.w3.org/2000/svg">
<g clip-path="url(#clip0_1148_2)">
<path d="M58.7394 148.613H36.6769C33.4373 148.613 30.1144 148.316 26.6978 147.717C23.2915 147.124 20.0415 146.019 16.9478 144.405C13.8488 142.78 11.0832 140.441 8.65609 137.384C6.22379 134.316 4.28629 130.337 2.84359 125.447C1.41129 120.561 0.697754 114.525 0.697754 107.342V62.0716V40.1341V8.36324L26.2186 8.15491V40.1341V62.0716V108.509C26.2186 113.582 26.953 117.488 28.4269 120.238C29.9113 122.978 31.8696 124.858 34.3019 125.884C36.729 126.9 39.2811 127.405 41.9478 127.405H58.7394V148.613Z" fill="black"/>
<path d="M114.004 151.884C105.765 151.884 98.1606 150.41 91.1918 147.467C84.2335 144.509 78.2022 140.394 73.1085 135.113C68.0095 129.837 64.0512 123.717 61.2335 116.759C58.4262 109.79 57.0251 102.322 57.0251 94.3632C57.0251 86.4205 58.4262 78.983 61.2335 72.0507C64.0512 65.1236 68.0095 59.0195 73.1085 53.7382C78.2022 48.4622 84.2335 44.332 91.1918 41.3424C98.1606 38.358 105.801 36.8632 114.108 36.8632C122.483 36.8632 130.15 38.358 137.108 41.3424C144.077 44.332 150.129 48.4622 155.254 53.7382C160.39 59.0195 164.364 65.1236 167.171 72.0507C169.989 78.983 171.4 86.4205 171.4 94.3632C171.4 102.394 169.989 109.874 167.171 116.801C164.364 123.733 160.39 129.837 155.254 135.113C150.129 140.394 144.067 144.509 137.067 147.467C130.067 150.41 122.379 151.884 114.004 151.884ZM114.213 128.134C120.338 128.134 125.786 126.676 130.567 123.759C135.358 120.842 139.14 116.853 141.921 111.78C144.697 106.712 146.088 100.905 146.088 94.3632C146.088 87.8216 144.697 82.0038 141.921 76.9049C139.14 71.8111 135.358 67.8007 130.567 64.8841C125.786 61.957 120.338 60.4882 114.213 60.4882C108.155 60.4882 102.718 61.957 97.9001 64.8841C93.0772 67.8007 89.2804 71.8111 86.5043 76.9049C83.7231 82.0038 82.3376 87.8216 82.3376 94.3632C82.3376 100.905 83.7231 106.712 86.5043 111.78C89.2804 116.853 93.0772 120.842 97.9001 123.759C102.718 126.676 108.155 128.134 114.213 128.134Z" fill="black"/>
<path d="M204.515 185.655H178.973V40.1341H203.244V58.3841C207.187 51.8424 212.431 46.6445 218.973 42.7799C225.515 38.9049 232.687 36.9674 240.494 36.9674C248.244 36.9674 255.332 38.4622 261.765 41.4466C268.207 44.4362 273.786 48.5507 278.494 53.8007C283.202 59.0403 286.853 65.1237 289.452 72.0507C292.062 78.983 293.369 86.4205 293.369 94.3632C293.369 102.322 292.062 109.79 289.452 116.759C286.853 123.717 283.181 129.837 278.431 135.113C273.692 140.394 268.14 144.509 261.765 147.467C255.4 150.41 248.421 151.884 240.827 151.884C235.546 151.884 230.546 151.019 225.827 149.301C221.119 147.582 216.895 145.155 213.161 142.03C209.437 138.894 206.379 135.249 203.994 131.092L204.515 143.655V185.655ZM236.181 128.342C241.942 128.342 247.233 126.978 252.056 124.238C256.874 121.488 260.744 117.566 263.661 112.467C266.588 107.374 268.056 101.337 268.056 94.3632C268.056 87.5455 266.608 81.608 263.723 76.5507C260.832 71.483 256.978 67.5403 252.161 64.7174C247.338 61.8997 241.978 60.4882 236.077 60.4882C231.645 60.4882 227.504 61.358 223.661 63.0924C219.827 64.8164 216.452 67.2278 213.536 70.3216C210.619 73.4049 208.332 76.9882 206.681 81.0716C205.025 85.1549 204.202 89.5872 204.202 94.3632C204.202 99.2955 205.041 103.837 206.723 107.988C208.416 112.144 210.744 115.749 213.702 118.801C216.661 121.858 220.067 124.212 223.931 125.863C227.806 127.519 231.89 128.342 236.181 128.342Z" fill="black"/>
<path d="M326.479 148.613H300.937V0.0299072H326.479V44.2382L325.854 56.3841C329.229 50.4674 334.062 45.7382 340.354 42.1966C346.656 38.6445 353.958 36.8632 362.25 36.8632C376.817 36.8632 387.718 41.4882 394.958 50.7382C402.208 59.9882 405.833 73.1289 405.833 90.1549V148.613H380.291V90.6757C380.291 79.9153 378.041 72.1757 373.541 67.4674C369.041 62.7487 362.921 60.3841 355.187 60.3841C351.447 60.3841 347.859 61.1757 344.416 62.7591C340.968 64.3424 337.895 66.582 335.187 69.4674C332.479 72.358 330.343 75.8216 328.791 79.8632C327.25 83.9049 326.479 88.358 326.479 93.2174V148.613Z" fill="black"/>
<path d="M469.554 151.884C461.315 151.884 453.711 150.41 446.742 147.467C439.784 144.509 433.752 140.394 428.659 135.113C423.56 129.837 419.601 123.717 416.784 116.759C413.976 109.79 412.575 102.322 412.575 94.3632C412.575 86.4205 413.976 78.983 416.784 72.0507C419.601 65.1236 423.56 59.0195 428.659 53.7382C433.752 48.4622 439.784 44.332 446.742 41.3424C453.711 38.358 461.351 36.8632 469.659 36.8632C478.034 36.8632 485.7 38.358 492.659 41.3424C499.627 44.332 505.679 48.4622 510.804 53.7382C515.94 59.0195 519.914 65.1236 522.721 72.0507C525.539 78.983 526.95 86.4205 526.95 94.3632C526.95 102.394 525.539 109.874 522.721 116.801C519.914 123.733 515.94 129.837 510.804 135.113C505.679 140.394 499.617 144.509 492.617 147.467C485.617 150.41 477.929 151.884 469.554 151.884ZM469.763 128.134C475.888 128.134 481.336 126.676 486.117 123.759C490.909 120.842 494.69 116.853 497.471 111.78C500.247 106.712 501.638 100.905 501.638 94.3632C501.638 87.8216 500.247 82.0038 497.471 76.9049C494.69 71.8111 490.909 67.8007 486.117 64.8841C481.336 61.957 475.888 60.4882 469.763 60.4882C463.706 60.4882 458.268 61.957 453.45 64.8841C448.627 67.8007 444.831 71.8111 442.054 76.9049C439.273 82.0038 437.888 87.8216 437.888 94.3632C437.888 100.905 439.273 106.712 442.054 111.78C444.831 116.853 448.627 120.842 453.45 123.759C458.268 126.676 463.706 128.134 469.763 128.134Z" fill="black"/>
<path d="M573.586 151.884C565.627 151.884 558.711 150.827 552.836 148.717C546.961 146.608 542.107 143.759 538.273 140.176C534.44 136.582 531.591 132.53 529.732 128.03C527.867 123.53 526.94 118.894 526.94 114.113L551.419 114.217C551.627 119.134 553.591 123.269 557.315 126.613C561.049 129.947 566.544 131.613 573.794 131.613C580.403 131.613 585.273 130.353 588.398 127.822C591.534 125.296 593.107 121.988 593.107 117.905C593.107 114.811 592.221 112.384 590.461 110.634C588.695 108.874 586.107 107.483 582.69 106.467C579.284 105.441 575.117 104.572 570.19 103.863C564.992 103.171 560.055 102.087 555.377 100.613C550.695 99.1288 546.555 97.0872 542.961 94.4882C539.377 91.8788 536.544 88.608 534.461 84.6757C532.388 80.733 531.357 75.9413 531.357 70.3007C531.357 63.6236 532.919 57.7903 536.044 52.8007C539.18 47.8007 543.794 43.8997 549.877 41.0924C555.961 38.2747 563.403 36.8632 572.211 36.8632C580.93 36.8632 588.575 38.3216 595.148 41.2382C601.732 44.1549 606.846 48.2382 610.502 53.4882C614.169 58.7278 616.002 64.7903 616.002 71.6757L590.982 71.4674C590.7 67.457 588.992 64.1705 585.857 61.6132C582.732 59.0455 578.216 57.7591 572.315 57.7591C566.825 57.7591 562.815 58.9413 560.273 61.3007C557.742 63.6497 556.482 66.4778 556.482 69.7799C556.482 72.4622 557.075 74.6288 558.273 76.2799C559.466 77.9361 561.695 79.3111 564.961 80.4049C568.237 81.4882 572.971 82.5247 579.169 83.5091C584.794 84.3424 590.028 85.4674 594.877 86.8841C599.737 88.2903 603.982 90.207 607.607 92.6341C611.232 95.0663 614.065 98.1966 616.107 102.03C618.148 105.863 619.169 110.665 619.169 116.426C619.169 124.374 617.174 130.967 613.19 136.217C609.216 141.457 603.799 145.379 596.94 147.988C590.091 150.582 582.305 151.884 573.586 151.884Z" fill="black"/>
<path d="M689.071 148.613H663.529V40.1341H687.8V57.0091C689.91 53.082 692.79 49.6028 696.446 46.5716C700.113 43.5455 704.368 41.1705 709.217 39.4466C714.076 37.7278 719.285 36.8632 724.842 36.8632C739.41 36.8632 750.311 41.4882 757.55 50.7382C764.8 59.9882 768.425 73.1288 768.425 90.1549V148.613H742.883V90.6757C742.883 79.9153 740.633 72.1757 736.133 67.4674C731.633 62.7486 725.514 60.3841 717.779 60.3841C712.779 60.3841 708.097 61.6549 703.738 64.1966C699.373 66.7278 695.842 70.4205 693.133 75.2799C690.425 80.1288 689.071 86.108 689.071 93.2174V148.613Z" fill="black"/>
<path d="M832.147 151.884C823.907 151.884 816.303 150.41 809.334 147.467C802.376 144.509 796.345 140.394 791.251 135.113C786.152 129.837 782.194 123.717 779.376 116.759C776.569 109.79 775.168 102.322 775.168 94.3632C775.168 86.4205 776.569 78.983 779.376 72.0507C782.194 65.1236 786.152 59.0195 791.251 53.7382C796.345 48.4622 802.376 44.332 809.334 41.3424C816.303 38.358 823.944 36.8632 832.251 36.8632C840.626 36.8632 848.293 38.358 855.251 41.3424C862.22 44.332 868.272 48.4622 873.397 53.7382C878.532 59.0195 882.506 65.1236 885.314 72.0507C888.131 78.983 889.543 86.4205 889.543 94.3632C889.543 102.394 888.131 109.874 885.314 116.801C882.506 123.733 878.532 129.837 873.397 135.113C868.272 140.394 862.209 144.509 855.209 147.467C848.209 150.41 840.522 151.884 832.147 151.884ZM832.355 128.134C838.48 128.134 843.928 126.676 848.709 123.759C853.501 120.842 857.282 116.853 860.063 111.78C862.84 106.712 864.23 100.905 864.23 94.3632C864.23 87.8216 862.84 82.0038 860.063 76.9049C857.282 71.8111 853.501 67.8007 848.709 64.8841C843.928 61.957 838.48 60.4882 832.355 60.4882C826.298 60.4882 820.86 61.957 816.043 64.8841C811.22 67.8007 807.423 71.8111 804.647 76.9049C801.866 82.0038 800.48 87.8216 800.48 94.3632C800.48 100.905 801.866 106.712 804.647 111.78C807.423 116.853 811.22 120.842 816.043 123.759C820.86 126.676 826.298 128.134 832.355 128.134Z" fill="black"/>
<path d="M963.824 148.613H941.761C938.522 148.613 935.199 148.316 931.782 147.717C928.376 147.124 925.126 146.019 922.032 144.405C918.933 142.78 916.168 140.441 913.74 137.384C911.308 134.316 909.371 130.337 907.928 125.447C906.496 120.561 905.782 114.525 905.782 107.342V62.0716H883.303V40.1341H905.782V8.36324L931.303 8.15491V40.1341H963.824V62.0716H931.303V108.509C931.303 113.582 932.037 117.488 933.511 120.238C934.996 122.978 936.954 124.858 939.386 125.884C941.813 126.9 944.365 127.405 947.032 127.405H963.824V148.613Z" fill="black"/>
<path d="M1073.01 92.4674C1073.01 93.8007 1072.97 95.0716 1072.9 96.2799C1072.83 97.4778 1072.69 99.0924 1072.48 101.134H987.735C988.651 107.04 990.531 112.066 993.38 116.217C996.24 120.374 999.776 123.561 1003.98 125.78C1008.2 127.988 1012.82 129.092 1017.82 129.092C1024.29 129.092 1029.53 127.811 1033.55 125.238C1037.56 122.671 1040.47 119.103 1042.3 114.53H1070.17C1068.82 119.379 1066.62 124.061 1063.57 128.572C1060.51 133.072 1056.76 137.066 1052.32 140.551C1047.89 144.025 1042.8 146.78 1037.07 148.822C1031.34 150.863 1025.1 151.884 1018.34 151.884C1010.18 151.884 1002.68 150.389 995.818 147.405C988.953 144.405 983.011 140.275 977.985 135.009C972.953 129.733 969.052 123.613 966.276 116.655C963.495 109.686 962.11 102.254 962.11 94.3632C962.11 86.4205 963.495 78.983 966.276 72.0507C969.052 65.1236 972.953 59.0195 977.985 53.7382C983.011 48.4622 988.953 44.332 995.818 41.3424C1002.68 38.358 1010.18 36.8632 1018.34 36.8632C1026.51 36.8632 1033.94 38.3424 1040.65 41.3007C1047.37 44.2486 1053.14 48.3111 1057.96 53.4882C1062.78 58.6549 1066.49 64.582 1069.09 71.2591C1071.7 77.9413 1073.01 85.0091 1073.01 92.4674ZM988.797 81.3841H1046.94C1046.59 77.3163 1045.08 73.608 1042.4 70.2591C1039.73 66.9153 1036.29 64.2278 1032.07 62.1966C1027.84 60.1549 1023.23 59.1341 1018.23 59.1341C1013.94 59.1341 1009.82 59.9257 1005.88 61.5091C1001.95 63.082 998.485 65.5038 995.485 68.7799C992.495 72.0611 990.266 76.2591 988.797 81.3841Z" fill="black"/>
<path d="M1118.16 151.884C1110.2 151.884 1103.29 150.827 1097.41 148.717C1091.54 146.608 1086.68 143.759 1082.85 140.176C1079.01 136.582 1076.17 132.53 1074.31 128.03C1072.44 123.53 1071.51 118.894 1071.51 114.113L1095.99 114.217C1096.2 119.134 1098.17 123.269 1101.89 126.613C1105.62 129.947 1111.12 131.613 1118.37 131.613C1124.98 131.613 1129.85 130.353 1132.97 127.822C1136.11 125.296 1137.68 121.988 1137.68 117.905C1137.68 114.811 1136.8 112.384 1135.04 110.634C1133.27 108.874 1130.68 107.483 1127.26 106.467C1123.86 105.441 1119.69 104.572 1114.76 103.863C1109.57 103.171 1104.63 102.087 1099.95 100.613C1095.27 99.1288 1091.13 97.0872 1087.54 94.4882C1083.95 91.8788 1081.12 88.608 1079.04 84.6757C1076.96 80.733 1075.93 75.9413 1075.93 70.3007C1075.93 63.6236 1077.49 57.7903 1080.62 52.8007C1083.75 47.8007 1088.37 43.8997 1094.45 41.0924C1100.54 38.2747 1107.98 36.8632 1116.79 36.8632C1125.5 36.8632 1133.15 38.3216 1139.72 41.2382C1146.31 44.1549 1151.42 48.2382 1155.08 53.4882C1158.74 58.7278 1160.58 64.7903 1160.58 71.6757L1135.56 71.4674C1135.27 67.457 1133.57 64.1705 1130.43 61.6132C1127.31 59.0455 1122.79 57.7591 1116.89 57.7591C1111.4 57.7591 1107.39 58.9413 1104.85 61.3007C1102.32 63.6497 1101.06 66.4778 1101.06 69.7799C1101.06 72.4622 1101.65 74.6288 1102.85 76.2799C1104.04 77.9361 1106.27 79.3111 1109.54 80.4049C1112.81 81.4882 1117.55 82.5247 1123.74 83.5091C1129.37 84.3424 1134.6 85.4674 1139.45 86.8841C1144.31 88.2903 1148.56 90.207 1152.18 92.6341C1155.81 95.0663 1158.64 98.1966 1160.68 102.03C1162.72 105.863 1163.74 110.665 1163.74 116.426C1163.74 124.374 1161.75 130.967 1157.76 136.217C1153.79 141.457 1148.37 145.379 1141.51 147.988C1134.67 150.582 1126.88 151.884 1118.16 151.884Z" fill="black"/>
</g>
<defs>
<clipPath id="clip0_1148_2">
<rect width="1164" height="186" fill="white"/>
</clipPath>
</defs>
</svg>
